HIERARCHY
ROOT Hips
{
	OFFSET 0.000000 0.000000 0.000000 
	CHANNELS 6 Xposition Yposition Zposition Zrotation Yrotation Xrotation
	JOINT LeftUpLeg
	{
		OFFSET 1.363060 -1.794630 0.839290 
		CHANNELS 3 Zrotation Yrotation Xrotation
		JOINT LeftLeg
		{
			OFFSET 2.448110 -6.726130 0.000000 
			CHANNELS 3 Zrotation Yrotation Xrotation
			JOINT LeftFoot
			{
				OFFSET 2.562200 -7.039590 0.000000 
				CHANNELS 3 Zrotation Yrotation Xrotation
				JOINT LeftToeBase
				{
					OFFSET 0.157640 -0.433110 2.322550 
					CHANNELS 3 Zrotation Yrotation Xrotation
					End Site
					{
						OFFSET 0.000000 0.000000 0.000000 
					}
				}
			}
		}
	}
	JOINT RightUpLeg
	{
		OFFSET -1.305520 -1.794630 0.839290 
		CHANNELS 3 Zrotation Yrotation Xrotation
		JOINT RightLeg
		{
			OFFSET -2.542530 -6.985550 0.000000 
			CHANNELS 3 Zrotation Yrotation Xrotation
			JOINT RightFoot
			{
				OFFSET -2.568260 -7.056230 0.000000 
				CHANNELS 3 Zrotation Yrotation Xrotation
				JOINT RightToeBase
				{
					OFFSET -0.164730 -0.452590 2.363150 
					CHANNELS 3 Zrotation Yrotation Xrotation
					End Site
					{
						OFFSET 0.000000 0.000000 0.000000 
					}
				}
			}
		}
	}
	JOINT Spine
	{
		OFFSET 0.028270 2.035590 -0.193380 
		CHANNELS 3 Zrotation Yrotation Xrotation
		JOINT Spine1
		{
			OFFSET 0.056720 2.048850 -0.042750 
			CHANNELS 3 Zrotation Yrotation Xrotation
			JOINT Neck1
			{
				OFFSET -0.054170 1.746240 0.172020 
				CHANNELS 3 Zrotation Yrotation Xrotation
				JOINT Head
				{
					OFFSET 0.104070 1.761360 -0.123970 
					CHANNELS 3 Zrotation Yrotation Xrotation
					End Site
					{
						OFFSET 0.000000 0.000000 0.000000 
					}
				}
			}
			JOINT LeftArm
			{
				OFFSET 3.362410 1.200890 -0.311210 
				CHANNELS 3 Zrotation Yrotation Xrotation
				JOINT LeftForeArm
				{
					OFFSET 4.983000 -0.000000 -0.000000 
					CHANNELS 3 Zrotation Yrotation Xrotation
					JOINT LeftHand
					{
						OFFSET 3.483560 -0.000000 -0.000000 
						CHANNELS 3 Zrotation Yrotation Xrotation
						JOINT LeftHandIndex1
						{
							OFFSET 0.715260 -0.000000 -0.000000 
							CHANNELS 3 Zrotation Yrotation Xrotation
							End Site
							{
								OFFSET 0.000000 0.000000 0.000000 
							}
						}
					}
				}
			}
			JOINT RightArm
			{
				OFFSET -3.136600 1.374050 -0.404650 
				CHANNELS 3 Zrotation Yrotation Xrotation
				JOINT RightForeArm
				{
					OFFSET -5.241900 -0.000000 -0.000000 
					CHANNELS 3 Zrotation Yrotation Xrotation
					JOINT RightHand
					{
						OFFSET -3.444170 -0.000000 -0.000000 
						CHANNELS 3 Zrotation Yrotation Xrotation
						JOINT RightHandIndex1
						{
							OFFSET -0.622530 -0.000000 -0.000000 
							CHANNELS 3 Zrotation Yrotation Xrotation
							End Site
							{
								OFFSET 0.000000 0.000000 0.000000 
							}
						}
					}
				}
			}
		}
	}
}
MOTION
Frames: 7
Frame Time: 0.041667
0.099862 17.626340 -0.684379 2.348579 -2.180468 3.177906 -27.181153 -7.151160 -0.291220 -0.287612 2.276107 11.288684 -1.463623 10.441579 -10.162396 0.834500 -5.827700 -16.285300 25.081668 8.490071 -3.658695 -1.795336 -4.961969 18.767064 0.861471 -11.913389 -14.567005 -0.483300 4.457900 -12.368500 0.588821 2.142482 -1.674158 0.343912 1.183178 -0.446231 4.230057 -4.808074 15.099570 1.791400 -2.419100 5.957100 -77.685970 17.239916 58.939290 53.051614 -52.760699 -26.652654 -0.435300 1.542000 -26.043028 -7.125000 0.000000 0.000000 72.843589 -13.867610 60.992246 -49.193439 51.714328 -20.633161 -0.022852 -1.458474 -35.611407 7.125000 0.000000 0.000000 
0.098988 17.626049 -0.679235 2.347716 -2.158296 3.222662 -27.177410 -7.183626 -0.359834 -0.280806 2.304643 11.363123 -1.445120 10.379819 -10.248846 0.820700 -5.780500 -16.148800 25.092606 8.531769 -3.631273 -1.786930 -4.941146 18.706373 0.875843 -11.997172 -14.562007 -0.490200 4.489100 -12.457000 0.599868 2.126941 -1.676365 0.396366 1.174736 -0.419287 4.248398 -4.806506 15.153070 1.805400 -2.419600 6.001100 -77.833508 17.269834 58.730577 53.039197 -52.756620 -26.643142 -0.432403 1.545749 -26.096720 -7.125000 0.000000 0.000000 72.849807 -13.897162 60.927649 -49.183759 51.709727 -20.632867 -0.025587 -1.462902 -35.686954 7.125000 0.000000 0.000000 
0.098212 17.623622 -0.671762 2.346140 -2.146460 3.260021 -27.179220 -7.221074 -0.445762 -0.267233 2.356951 11.503158 -1.422049 10.305534 -10.362460 0.783200 -5.650000 -15.772200 25.088772 8.601444 -3.560115 -1.765541 -4.887824 18.550988 0.886488 -12.094889 -14.640829 -0.508800 4.572300 -12.692500 0.599641 2.119292 -1.660458 0.413906 1.168931 -0.335508 4.286005 -4.797179 15.167260 1.828900 -2.415400 6.024100 -77.950076 17.314235 58.519627 53.109328 -52.784036 -26.699706 -0.425208 1.551986 -26.109993 -7.125000 0.000000 0.000000 72.912406 -13.930844 60.804411 -49.182420 51.713587 -20.640373 -0.030192 -1.468035 -35.709884 7.125000 0.000000 0.000000 
0.098794 17.622749 -0.664678 2.280691 -2.125654 3.282099 -27.112522 -7.244966 -0.488872 -0.257882 2.387546 11.582550 -1.423690 10.294452 -10.300121 0.781700 -5.644600 -15.756600 25.144828 8.570164 -3.509174 -1.750087 -4.847482 18.438783 0.878871 -12.055031 -14.670872 -0.504200 4.551700 -12.634300 0.592465 2.126374 -1.657675 0.356846 1.172907 -0.304159 4.307393 -4.812078 15.182583 1.835400 -2.420600 6.035000 -78.014914 17.396242 58.313179 53.213388 -52.823726 -26.781951 -0.418799 1.553424 -26.140345 -7.125000 0.000000 0.000000 73.041264 -14.015873 60.643287 -49.179485 51.716554 -20.639877 -0.033263 -1.470094 -35.721748 7.125000 0.000000 0.000000 
0.099474 17.621390 -0.658370 2.278634 -2.103585 3.289829 -27.116631 -7.255185 -0.483941 -0.253419 2.398300 11.612503 -1.428449 10.282055 -10.188788 0.800800 -5.711400 -15.949300 25.137163 8.509211 -3.453866 -1.738516 -4.814201 18.347375 0.869686 -12.006401 -14.696143 -0.485100 4.466000 -12.391400 0.568427 2.151018 -1.664612 0.296343 1.186545 -0.321694 4.315716 -4.850138 15.126357 1.829600 -2.436000 5.994400 -78.044501 17.478283 58.149716 53.240161 -52.835094 -26.801237 -0.415569 1.552459 -26.140030 -7.125000 0.000000 0.000000 73.193790 -14.157903 60.432813 -49.198287 51.727520 -20.649828 -0.035344 -1.468760 -35.765695 7.125000 0.000000 0.000000 
0.100056 17.621876 -0.651674 2.245284 -2.087156 3.299730 -27.080809 -7.237899 -0.485045 -0.252074 2.403008 11.626693 -1.425775 10.286345 -10.244218 0.816700 -5.766700 -16.108900 25.172844 8.494523 -3.402538 -1.730244 -4.792131 18.287765 0.887907 -12.094157 -14.657155 -0.487400 4.476800 -12.422000 0.555799 2.173237 -1.665572 0.243611 1.197905 -0.318471 4.298636 -4.881788 15.117941 1.809500 -2.448000 5.990500 -78.077732 17.514362 58.019629 53.260715 -52.843158 -26.815085 -0.411393 1.548967 -26.139578 -7.125000 0.000000 0.000000 73.318472 -14.248648 60.279860 -49.192972 51.727344 -20.645756 -0.036425 -1.469941 -35.834602 7.125000 0.000000 0.000000 
0.101512 17.621682 -0.645171 2.334024 -2.048120 3.326106 -27.191047 -7.270428 -0.444844 -0.258533 2.385136 11.583942 -1.421432 10.299498 -10.348113 0.827800 -5.804500 -16.218400 25.055648 8.446534 -3.427860 -1.732156 -4.794733 18.289980 0.893680 -12.122921 -14.631891 -0.488400 4.481100 -12.434300 0.524383 2.183609 -1.671171 0.214359 1.202752 -0.314132 4.318939 -4.912335 15.141347 1.810800 -2.459500 6.009800 -78.122066 17.530740 57.911923 53.303282 -52.858804 -26.848818 -0.409881 1.550148 -26.220413 -7.125000 0.000000 0.000000 73.424350 -14.342768 60.124407 -49.169702 51.718505 -20.630324 -0.042152 -1.470894 -35.824530 7.125000 0.000000 0.000000 
